<svg width="24" height="24" viewBox="0 0 24 24" fill="none" xmlns="http://www.w3.org/2000/svg">
<path fill-rule="evenodd" clip-rule="evenodd" d="M9.1438 0.290553C6.69382 0.890672 4.10732 2.54644 2.59165 4.48524C-1.50661 9.72721 -0.648443 17.391 4.48718 21.4125C6.68058 23.1302 9.20697 24 12.0025 24C14.0096 24 15.5043 23.6635 17.2395 22.821C20.5028 21.2365 22.8689 18.2979 23.7105 14.7847C24.0965 13.1733 24.0965 10.8259 23.7105 9.21446C22.662 4.83694 19.1536 1.32332 14.7915 0.282039C13.202 -0.0972915 10.7125 -0.0935232 9.1438 0.290553ZM10.6931 9.81751C9.92193 10.2846 9.49396 11.0538 9.49312 11.9739C9.49228 12.791 9.62337 13.1286 10.1718 13.7216C10.7052 14.2984 11.1994 14.5117 12.0025 14.5117C12.8056 14.5117 13.2998 14.2984 13.8332 13.7216C14.3782 13.1323 14.5126 12.7917 14.5126 11.9996C14.5126 11.2074 14.3782 10.8669 13.8332 10.2775C13.2953 9.69595 12.8043 9.48731 11.9746 9.48814C11.446 9.4887 11.0812 9.58249 10.6931 9.81751ZM1.96427 13.2178C1.96915 13.8026 2.42878 15.3503 2.87041 16.2693C4.05935 18.7432 6.09154 20.563 8.79518 21.5748C9.77578 21.9417 9.97603 21.9662 12.0025 21.9662C14.029 21.9662 14.2292 21.9417 15.2098 21.5748C16.4858 21.0972 17.2571 20.6656 18.3314 19.8274C19.9175 18.59 21.3637 16.331 21.8256 14.37C22.1859 12.8402 22.4364 12.9765 19.264 12.9765H16.4854L16.1425 13.726C15.3791 15.3948 14.0358 16.3352 12.2691 16.4375C10.715 16.5275 9.93267 16.2332 8.85277 15.1522C8.28354 14.5822 7.93534 14.0955 7.79547 13.6743L7.58685 13.0463L4.77445 13.0085C2.16173 12.9734 1.96232 12.9882 1.96427 13.2178Z" fill="#F9F9F9"/>
</svg>
