<svg width="28" height="24" viewBox="0 0 28 24" fill="none" xmlns="http://www.w3.org/2000/svg">
<path d="M15.0812 0.745323C14.5994 -0.0848652 13.4006 -0.0848684 12.9188 0.745323L9.52626 6.59196C9.2883 7.00206 8.87699 7.28193 8.40816 7.35274L2.05027 8.31302C0.982412 8.47431 0.607838 9.82257 1.43947 10.5116L6.17583 14.4356C6.61426 14.7988 6.82041 15.3718 6.71391 15.9311L5.47495 22.4375C5.27909 23.466 6.35883 24.2652 7.28526 23.7774L13.272 20.6251C13.7277 20.3852 14.2723 20.3852 14.728 20.6251L20.7147 23.7774C21.6412 24.2652 22.7209 23.466 22.525 22.4375L21.2861 15.9311C21.1796 15.3718 21.3857 14.7988 21.8242 14.4356L26.5605 10.5116C27.3922 9.82257 27.0176 8.47431 25.9497 8.31302L19.5918 7.35274C19.123 7.28193 18.7117 7.00206 18.4737 6.59196L15.0812 0.745323Z" fill="white"/>
</svg>
