<svg width="26" height="12" viewBox="0 0 26 12" fill="none" xmlns="http://www.w3.org/2000/svg">
<path fill-rule="evenodd" clip-rule="evenodd" d="M4.47553 0.806806C3.62543 1.06926 2.73803 1.99357 2.50325 2.86101C2.24446 3.81723 2.61968 5.0811 3.35354 5.72551C3.99101 6.28521 4.41346 6.4399 5.30779 6.44116C6.03568 6.44222 6.1842 6.4106 6.63971 6.15837C7.2129 5.84078 7.61077 5.43048 7.93249 4.8252C8.10772 4.49547 8.14878 4.26281 8.14878 3.59902C8.14878 2.93523 8.10772 2.70256 7.93249 2.37283C7.38407 1.34106 6.54843 0.790422 5.45883 0.743098C5.08419 0.726809 4.64169 0.755434 4.47553 0.806806ZM19.8968 0.806806C19.0467 1.06926 18.1593 1.99357 17.9245 2.86101C17.6657 3.81723 18.0409 5.0811 18.7748 5.72551C19.4123 6.28521 19.8347 6.4399 20.729 6.44116C21.4569 6.44222 21.6055 6.4106 22.061 6.15837C22.6342 5.84078 23.032 5.43048 23.3537 4.8252C23.6644 4.24073 23.6644 2.9573 23.3537 2.37283C22.8053 1.34106 21.9697 0.790422 20.8801 0.743098C20.5054 0.726809 20.0629 0.755434 19.8968 0.806806ZM3.87265 1.80591C3.03711 2.26903 3.38669 3.59902 4.34397 3.59902C4.83234 3.59902 5.30779 3.12819 5.30779 2.64454C5.30779 1.9209 4.50811 1.45363 3.87265 1.80591ZM19.2939 1.80591C18.4584 2.26903 18.8079 3.59902 19.7652 3.59902C20.2536 3.59902 20.729 3.12819 20.729 2.64454C20.729 1.9209 19.9294 1.45363 19.2939 1.80591ZM11.0908 6.03635C11.0908 6.52028 11.115 6.56983 11.5727 7.02061C11.8377 7.28171 12.0546 7.55544 12.0546 7.62898C12.0546 7.70261 11.9071 7.91022 11.7269 8.09046C11.4908 8.3266 11.313 8.41816 11.0908 8.41816C10.6942 8.41816 10.1269 7.88198 10.1269 7.50734C10.1269 6.45522 8.69257 6.11056 8.29624 7.06755C8.02531 7.72141 8.44361 8.97246 9.13651 9.58083C9.77398 10.1405 10.1964 10.2952 11.0908 10.2965C11.839 10.2975 11.9581 10.2703 12.4642 9.98351L13.0184 9.6695L13.5726 9.98351C14.0787 10.2703 14.1979 10.2975 14.9461 10.2965C15.8404 10.2952 16.2629 10.1405 16.9003 9.58083C17.5932 8.97246 18.0115 7.72141 17.7406 7.06755C17.3418 6.10459 15.9099 6.456 15.9099 7.51669C15.9099 7.88189 15.3365 8.41816 14.9461 8.41816C14.7238 8.41816 14.5461 8.3266 14.31 8.09046C14.1297 7.91022 13.9823 7.70261 13.9823 7.62898C13.9823 7.55544 14.1991 7.28171 14.4642 7.02061C14.9219 6.56983 14.9461 6.52028 14.9461 6.03635V5.52667H13.0184H11.0908V6.03635ZM1.5399 7.67861C0.240948 8.36438 0.138493 10.1206 1.34771 10.9723C1.70558 11.2243 1.84158 11.2615 2.40754 11.2615C2.95056 11.2615 3.12087 11.2191 3.4476 11.0029C4.05385 10.6017 4.29577 10.1348 4.29577 9.36618C4.29577 8.80803 4.2579 8.6701 4.00663 8.31339C3.63893 7.79129 3.01514 7.45433 2.41631 7.45433C2.12957 7.45433 1.80968 7.53616 1.5399 7.67861ZM22.7441 7.67861C21.4452 8.36438 21.3427 10.1206 22.5519 10.9723C22.9098 11.2243 23.0458 11.2615 23.6118 11.2615C24.1548 11.2615 24.3251 11.2191 24.6518 11.0029C25.2581 10.6017 25.5 10.1348 25.5 9.36618C25.5 8.80803 25.4621 8.6701 25.2108 8.31339C24.8432 7.79129 24.2194 7.45433 23.6205 7.45433C23.3338 7.45433 23.0139 7.53616 22.7441 7.67861Z" fill="#B6B6B6"/>
</svg>
