<svg width="316" height="316" viewBox="0 0 316 316" fill="none" xmlns="http://www.w3.org/2000/svg">
<g opacity="0.1">
<path fill-rule="evenodd" clip-rule="evenodd" d="M158 288.281C229.952 288.281 288.281 229.952 288.281 158C288.281 86.048 229.952 27.7193 158 27.7193C86.048 27.7193 27.7193 86.048 27.7193 158C27.7193 229.952 86.048 288.281 158 288.281ZM158 316C245.261 316 316 245.261 316 158C316 70.739 245.261 0 158 0C70.739 0 0 70.739 0 158C0 245.261 70.739 316 158 316Z" fill="#F9F9F9"/>
<path fill-rule="evenodd" clip-rule="evenodd" d="M159.848 196.807C181.791 196.807 199.579 179.019 199.579 157.076C199.579 145.87 194.939 135.747 187.476 128.524C180.326 121.604 170.584 117.345 159.848 117.345C137.905 117.345 120.117 135.133 120.117 157.076C120.117 167.812 124.376 177.554 131.296 184.704C138.519 192.167 148.642 196.807 159.848 196.807ZM159.848 224.526C197.1 224.526 227.298 194.328 227.298 157.076C227.298 119.824 197.1 89.6257 159.848 89.6257C122.596 89.6257 92.3977 119.824 92.3977 157.076C92.3977 194.328 122.596 224.526 159.848 224.526Z" fill="#F9F9F9"/>
<path fill-rule="evenodd" clip-rule="evenodd" d="M218.464 12.027C237.633 19.9673 255.051 31.6055 269.723 46.2771L187.476 128.524C180.326 121.604 170.584 117.345 159.848 117.345C137.905 117.345 120.117 135.133 120.117 157.076C120.117 167.812 124.376 177.554 131.296 184.704L46.2772 269.723C31.6055 255.051 19.9673 237.633 12.027 218.464C4.0868 199.295 4.36972e-06 178.749 0 158C-4.36971e-06 137.251 4.08678 116.705 12.027 97.536C19.9673 78.3666 31.6055 60.9488 46.2771 46.2771C60.9488 31.6055 78.3665 19.9673 97.536 12.027C116.705 4.0868 137.251 3.46276e-06 158 0C178.749 -3.46275e-06 199.295 4.08678 218.464 12.027Z" fill="#F9F9F9"/>
</g>
</svg>
