<svg width="22" height="27" viewBox="0 0 22 27" fill="none" xmlns="http://www.w3.org/2000/svg">
<path fill-rule="evenodd" clip-rule="evenodd" d="M0.716928 10.0967C1.14648 4.88556 5.50122 0.875 10.7301 0.875H11.27C16.4988 0.875 20.8536 4.88556 21.2831 10.0967C21.5144 12.9025 20.6477 15.6885 18.8657 17.8679L12.8743 25.1951C11.9056 26.3798 10.0945 26.3799 9.12573 25.1951L3.13441 17.8679C1.35233 15.6885 0.485656 12.9025 0.716928 10.0967ZM11 5.5625C7.72081 5.5625 5.0625 8.22081 5.0625 11.5C5.0625 14.7792 7.72081 17.4375 11 17.4375C14.2792 17.4375 16.9375 14.7792 16.9375 11.5C16.9375 8.22081 14.2792 5.5625 11 5.5625Z" fill="#F9F9F9"/>
</svg>
