<svg width="26" height="26" viewBox="0 0 26 26" fill="none" xmlns="http://www.w3.org/2000/svg">
<path fill-rule="evenodd" clip-rule="evenodd" d="M2.67636 6.71892C1.3669 8.87707 0.707289 11.8783 1.00562 14.3219C1.81198 20.9288 7.83841 25.7406 14.3164 24.9498C17.0833 24.6122 19.4862 23.4393 21.4645 21.461C22.8849 20.0406 23.7048 18.7448 24.337 16.9211C25.5259 13.4914 25.1225 9.73899 23.2339 6.65921C22.3676 5.24662 20.7077 3.58673 19.2951 2.72047C15.4577 0.367113 10.4904 0.365434 6.66711 2.71613C5.27407 3.57272 3.5149 5.33722 2.67636 6.71892ZM10.5093 12.3591C10.2939 13.2351 10.5349 14.0819 11.1849 14.7331C11.7622 15.3115 12.0936 15.4574 12.9011 15.4886C13.6864 15.519 14.187 15.3201 14.7553 14.7517C15.3236 14.1834 15.5226 13.6829 15.4922 12.8975C15.4611 12.0951 15.3154 11.7592 14.7553 11.199C14.1951 10.6389 13.8592 10.4932 13.0568 10.4622C12.265 10.4316 11.7699 10.6315 11.1834 11.2193C10.8096 11.5938 10.6178 11.9183 10.5093 12.3591ZM6.73649 20.9407C7.15343 21.3507 8.57313 22.1199 9.53551 22.4572C12.1262 23.3651 14.8511 23.2137 17.4799 22.0159C18.4333 21.5814 18.5923 21.4569 20.0264 20.0228C21.4605 18.5887 21.5849 18.4297 22.0194 17.4763C22.5847 16.2357 22.8253 15.3846 22.9929 14.0316C23.2404 12.0342 22.6665 9.41343 21.6067 7.69995C20.7799 6.36315 21.0536 6.28233 18.8086 8.52733L16.8422 10.4937L17.1295 11.2663C17.7693 12.9866 17.4836 14.6022 16.3057 15.9248C15.2695 17.0883 14.5078 17.4338 12.9791 17.4336C12.1733 17.4334 11.5827 17.3357 11.1859 17.1369L10.5942 16.8404L8.57717 18.804C6.70343 20.6282 6.57277 20.7797 6.73649 20.9407Z" fill="#303030"/>
</svg>
