<svg width="21" height="18" viewBox="0 0 21 18" fill="none" xmlns="http://www.w3.org/2000/svg">
<path d="M15.9204 0.837087C15.5543 1.2032 15.5543 1.7968 15.9204 2.16291L16.82 3.0625H12.0543C11.2158 3.0625 10.4511 3.54179 10.0856 4.29641L9.82262 4.8393C9.75594 4.97696 9.75594 5.13757 9.82262 5.27523L10.5337 6.74334C10.6248 6.93137 10.8927 6.93137 10.9837 6.74334L11.773 5.11377C11.8253 5.00597 11.9345 4.9375 12.0543 4.9375H16.82L15.9204 5.83709C15.5543 6.2032 15.5543 6.7968 15.9204 7.16291C16.2865 7.52903 16.8801 7.52903 17.2463 7.16291L19.7463 4.66291C20.1124 4.2968 20.1124 3.7032 19.7463 3.33709L17.2463 0.837087C16.8801 0.470971 16.2865 0.470971 15.9204 0.837087Z" fill="#303030"/>
<path d="M7.87532 13.1607C7.942 13.023 7.942 12.8624 7.87532 12.7248L7.1642 11.2567C7.07313 11.0686 6.80528 11.0686 6.71421 11.2567L5.92489 12.8862C5.87267 12.994 5.76343 13.0625 5.64364 13.0625H1.58334C1.06558 13.0625 0.645844 13.4822 0.645844 14C0.645844 14.5178 1.06558 14.9375 1.58334 14.9375H5.64364C6.48213 14.9375 7.24683 14.4582 7.61235 13.7036L7.87532 13.1607Z" fill="#303030"/>
<path d="M15.9204 17.1629C15.5543 16.7968 15.5543 16.2032 15.9204 15.8371L16.82 14.9375H12.0543C11.2158 14.9375 10.4511 14.4582 10.0856 13.7036L5.92489 5.11377C5.87267 5.00597 5.76343 4.9375 5.64364 4.9375H1.58334C1.06558 4.9375 0.645844 4.51777 0.645844 4C0.645844 3.48223 1.06558 3.0625 1.58334 3.0625H5.64364C6.48213 3.0625 7.24683 3.54179 7.61235 4.29641L11.773 12.8862C11.8253 12.994 11.9345 13.0625 12.0543 13.0625H16.82L15.9204 12.1629C15.5543 11.7968 15.5543 11.2032 15.9204 10.8371C16.2865 10.471 16.8801 10.471 17.2463 10.8371L19.7463 13.3371C20.1124 13.7032 20.1124 14.2968 19.7463 14.6629L17.2463 17.1629C16.8801 17.529 16.2865 17.529 15.9204 17.1629Z" fill="#303030"/>
</svg>
