<svg width="23" height="19" viewBox="0 0 23 19" fill="none" xmlns="http://www.w3.org/2000/svg">
<path fill-rule="evenodd" clip-rule="evenodd" d="M0.729172 6.53724C0.729172 3.16163 3.6906 0.5625 7.16667 0.5625C8.95851 0.5625 10.5352 1.40267 11.6667 2.48979C12.7981 1.40267 14.3748 0.5625 16.1667 0.5625C19.6427 0.5625 22.6042 3.16163 22.6042 6.53724C22.6042 8.84958 21.6181 10.8831 20.2519 12.6019C18.8881 14.3178 17.1041 15.7741 15.396 16.9575C14.7436 17.4094 14.0836 17.8264 13.4795 18.134C12.9123 18.4229 12.2601 18.6875 11.6667 18.6875C11.0732 18.6875 10.421 18.4229 9.85383 18.134C9.24977 17.8264 8.58975 17.4094 7.93734 16.9575C6.22923 15.7741 4.44526 14.3178 3.08145 12.6019C1.71527 10.8831 0.729172 8.84959 0.729172 6.53724ZM7.16667 2.4375C4.56761 2.4375 2.60417 4.34887 2.60417 6.53724C2.60417 8.29162 3.34891 9.925 4.54929 11.4353C5.75203 12.9485 7.37033 14.2837 9.0051 15.4162C9.6237 15.8447 10.2063 16.2094 10.7047 16.4632C11.24 16.7358 11.55 16.8125 11.6667 16.8125C11.7833 16.8125 12.0934 16.7358 12.6286 16.4632C13.127 16.2094 13.7097 15.8447 14.3282 15.4162C15.963 14.2837 17.5813 12.9485 18.7841 11.4353C19.9844 9.925 20.7292 8.29161 20.7292 6.53724C20.7292 4.34887 18.7657 2.4375 16.1667 2.4375C14.674 2.4375 13.2802 3.32928 12.4099 4.46115C12.2324 4.69195 11.9578 4.82721 11.6667 4.82721C11.3755 4.82721 11.1009 4.69195 10.9235 4.46115C10.0532 3.32928 8.65936 2.4375 7.16667 2.4375Z" fill="black"/>
</svg>
